<?xml version="1.0" encoding="UTF-8" ?>
<!DOCTYPE svg PUBLIC "-//W3C//DTD SVG 1.1//EN" "http://www.w3.org/Graphics/SVG/1.1/DTD/svg11.dtd">
<svg width="186pt" height="305pt" viewBox="0 0 186 305" version="1.1" xmlns="http://www.w3.org/2000/svg">
<path fill="#ffffff" d=" M 0.00 0.00 L 102.45 0.00 C 99.99 5.60 93.20 5.43 88.97 8.96 C 85.41 11.70 81.94 15.00 80.17 19.19 C 78.46 26.65 76.76 34.22 76.93 41.92 C 75.99 48.88 71.34 54.88 65.31 58.30 C 61.89 60.06 59.19 62.96 57.13 66.16 C 55.44 68.25 56.17 71.15 55.71 73.62 C 53.29 70.32 51.34 66.68 50.12 62.77 C 49.04 53.48 53.69 44.55 52.84 35.28 C 51.77 31.65 51.74 27.05 48.20 24.81 C 44.47 22.68 40.97 19.42 36.36 19.85 C 38.66 22.28 41.10 24.82 41.90 28.19 C 42.15 30.72 42.15 33.28 41.86 35.79 C 40.78 40.91 37.22 45.08 36.15 50.20 C 35.82 53.47 35.99 56.77 35.98 60.05 C 35.86 67.41 42.01 73.43 41.02 80.89 C 40.43 85.95 36.37 89.38 32.38 92.00 C 30.09 89.17 26.43 87.16 25.55 83.42 C 24.00 79.09 25.85 74.61 26.16 70.24 C 21.28 74.27 15.40 78.39 13.94 84.96 C 13.50 86.83 12.73 88.75 13.21 90.70 C 14.22 95.36 14.03 100.38 16.31 104.69 C 18.62 108.60 22.32 111.40 25.16 114.88 C 26.87 118.11 29.04 121.24 29.69 124.91 C 29.18 129.92 27.47 134.68 24.97 139.03 C 23.06 141.69 24.58 144.88 24.99 147.74 C 19.44 142.16 19.38 133.61 14.17 127.83 C 10.13 124.66 5.08 123.36 0.00 123.96 L 0.00 0.00 Z" />
<path fill="#010101" d=" M 102.45 0.00 L 104.01 0.00 C 104.58 6.93 103.47 14.35 98.72 19.73 C 93.22 25.89 91.08 34.63 92.25 42.72 C 93.48 47.74 92.89 52.95 93.03 58.06 C 93.39 62.33 90.62 65.98 87.81 68.87 C 93.40 69.33 99.30 71.36 104.67 68.66 C 109.24 67.34 110.36 62.20 111.13 58.14 C 112.31 53.79 111.64 49.21 112.91 44.89 C 113.19 42.33 115.70 40.97 117.53 39.53 C 120.24 37.32 123.59 36.18 126.59 34.44 C 129.61 33.77 132.69 33.40 135.74 32.87 C 133.65 37.07 128.14 37.79 125.98 41.96 C 122.39 47.41 124.04 54.33 125.88 60.11 C 127.69 68.02 131.09 76.61 127.64 84.56 C 125.34 86.94 123.27 89.65 120.44 91.44 C 118.16 93.16 115.21 93.35 112.58 94.25 C 116.79 95.80 119.79 99.12 122.64 102.44 C 125.11 103.67 127.58 104.99 130.20 105.87 C 135.09 106.03 140.00 106.28 144.90 106.08 C 149.20 100.34 147.78 92.79 150.41 86.46 C 152.09 83.84 153.59 81.02 155.79 78.80 C 158.47 77.09 161.39 75.80 164.04 74.02 C 166.31 72.26 169.28 73.17 171.88 73.35 C 168.39 75.99 163.92 78.03 162.26 82.39 C 160.81 87.95 163.56 93.19 164.41 98.57 C 165.41 105.36 168.78 111.73 168.06 118.74 C 163.40 123.77 156.30 124.15 149.95 124.95 C 146.05 125.12 142.14 124.96 138.23 125.00 C 136.50 126.93 134.92 129.00 133.56 131.22 C 135.83 130.29 138.00 129.13 140.25 128.15 C 146.11 127.75 152.04 127.87 157.87 128.60 C 162.06 127.70 166.63 128.69 170.52 126.54 C 172.66 125.32 174.82 124.14 176.99 122.96 C 180.48 120.97 182.32 116.99 186.00 115.24 L 186.00 117.24 C 182.67 122.19 179.97 127.60 176.27 132.28 C 170.44 137.19 162.40 138.08 155.09 138.88 C 150.21 137.77 145.16 137.79 140.18 138.10 C 136.20 138.93 134.22 142.92 131.48 145.53 C 133.77 145.89 136.57 145.91 137.60 148.43 C 138.96 152.24 143.01 154.33 146.95 154.04 C 152.62 154.14 159.77 154.80 163.22 149.20 C 164.94 145.32 165.73 140.83 169.26 138.00 C 173.43 137.99 177.61 137.86 181.77 138.30 C 180.01 141.41 175.94 141.17 173.70 143.70 C 170.31 146.98 170.61 152.13 169.38 156.38 C 168.33 159.76 168.38 163.49 166.70 166.65 C 163.97 170.23 159.75 173.30 155.06 173.03 C 148.51 172.79 141.38 174.04 135.44 170.58 C 129.62 166.65 122.30 165.01 115.38 166.28 C 112.22 166.89 111.48 170.20 110.84 172.86 C 112.68 179.10 115.65 185.03 116.47 191.54 C 116.99 196.08 118.75 200.40 119.02 204.98 C 119.10 208.23 120.78 211.09 121.80 214.09 C 120.13 219.92 123.12 225.78 121.84 231.72 C 119.26 235.02 115.17 231.56 112.23 230.63 C 114.46 233.43 118.17 234.12 120.90 236.25 C 122.06 238.79 118.32 238.70 116.81 239.50 C 119.55 242.07 122.39 244.57 124.78 247.48 C 125.03 248.89 125.08 250.32 125.19 251.75 C 120.96 255.33 115.51 256.69 110.37 258.40 C 107.35 259.40 104.10 258.92 100.97 259.02 C 101.18 261.76 100.42 264.75 101.71 267.30 C 104.78 272.39 105.23 278.57 108.32 283.68 C 111.00 289.28 115.82 293.69 117.44 299.80 C 110.24 304.17 102.04 300.63 94.30 300.86 C 92.41 299.57 93.27 297.07 92.86 295.16 C 92.04 289.96 90.53 284.89 89.10 279.87 C 89.52 273.18 86.73 266.87 86.90 260.20 C 87.02 258.68 85.09 258.24 84.25 257.29 C 84.16 262.87 83.74 268.40 82.91 273.91 C 81.07 283.40 82.53 293.10 81.87 302.68 C 81.57 302.97 80.98 303.56 80.68 303.86 C 77.05 304.26 73.26 303.46 69.81 305.00 L 60.90 305.00 C 59.18 304.31 57.46 303.62 55.77 302.88 C 55.98 300.63 55.99 298.26 57.27 296.30 C 58.98 294.74 61.04 293.66 63.00 292.46 C 62.98 288.29 63.05 284.12 63.01 279.96 C 63.11 275.86 60.89 272.13 60.99 268.04 C 60.94 264.40 61.01 260.76 61.00 257.13 C 56.97 257.29 53.08 256.14 49.39 254.63 C 46.49 253.14 45.70 249.84 44.69 247.02 C 48.20 242.71 52.05 238.60 54.68 233.65 C 56.15 230.80 58.87 228.95 60.85 226.50 C 61.73 224.41 59.77 222.59 59.14 220.73 C 58.53 216.14 59.82 211.32 58.13 206.89 C 57.07 204.16 56.93 201.24 56.65 198.37 C 54.06 202.49 51.38 206.67 50.57 211.57 C 48.46 218.21 46.16 226.11 39.58 229.61 C 35.22 231.74 29.81 231.69 25.77 228.86 C 26.07 226.96 25.79 224.77 27.16 223.23 C 29.82 219.54 32.26 215.54 32.96 210.97 C 34.07 204.46 35.32 197.98 36.39 191.47 C 37.99 187.90 39.42 184.07 42.25 181.27 C 46.03 177.58 48.39 172.34 48.15 167.01 C 41.37 166.78 34.50 167.63 27.81 166.19 C 23.06 165.87 18.20 163.27 16.28 158.73 C 13.43 153.86 16.33 147.91 14.17 142.83 C 12.85 139.42 11.41 135.87 8.75 133.26 C 6.59 131.14 4.95 128.58 3.45 125.97 C 2.30 125.98 1.15 126.01 -0.00 126.03 L 0.00 123.96 C 5.08 123.36 10.13 124.66 14.17 127.83 C 19.38 133.61 19.44 142.16 24.99 147.74 C 24.58 144.88 23.06 141.69 24.97 139.03 C 27.47 134.68 29.18 129.92 29.69 124.91 C 29.04 121.24 26.87 118.11 25.16 114.88 C 22.32 111.40 18.62 108.60 16.31 104.69 C 14.03 100.38 14.22 95.36 13.21 90.70 C 12.73 88.75 13.50 86.83 13.94 84.96 C 15.40 78.39 21.28 74.27 26.16 70.24 C 25.85 74.61 24.00 79.09 25.55 83.42 C 26.43 87.16 30.09 89.17 32.38 92.00 C 36.37 89.38 40.43 85.95 41.02 80.89 C 42.01 73.43 35.86 67.41 35.98 60.05 C 35.99 56.77 35.82 53.47 36.15 50.20 C 37.22 45.08 40.78 40.91 41.86 35.79 C 42.15 33.28 42.15 30.72 41.90 28.19 C 41.10 24.82 38.66 22.28 36.36 19.85 C 40.97 19.42 44.47 22.68 48.20 24.81 C 51.74 27.05 51.77 31.65 52.84 35.28 C 53.69 44.55 49.04 53.48 50.12 62.77 C 51.34 66.68 53.29 70.32 55.71 73.62 C 56.17 71.15 55.44 68.25 57.13 66.16 C 59.19 62.96 61.89 60.06 65.31 58.30 C 71.34 54.88 75.99 48.88 76.93 41.92 C 76.76 34.22 78.46 26.65 80.17 19.19 C 81.94 15.00 85.41 11.70 88.97 8.96 C 93.20 5.43 99.99 5.60 102.45 0.00 Z" />
<path fill="#ffffff" d=" M 104.01 0.00 L 186.00 0.00 L 186.00 115.24 C 182.32 116.99 180.48 120.97 176.99 122.96 C 174.82 124.14 172.66 125.32 170.52 126.54 C 166.63 128.69 162.06 127.70 157.87 128.60 C 152.04 127.87 146.11 127.75 140.25 128.15 C 138.00 129.13 135.83 130.29 133.56 131.22 C 134.92 129.00 136.50 126.93 138.23 125.00 C 142.14 124.96 146.05 125.12 149.95 124.95 C 156.30 124.15 163.40 123.77 168.06 118.74 C 168.78 111.73 165.41 105.36 164.41 98.57 C 163.56 93.19 160.81 87.95 162.26 82.39 C 163.92 78.03 168.39 75.99 171.88 73.35 C 169.28 73.17 166.31 72.26 164.04 74.02 C 161.39 75.80 158.47 77.09 155.79 78.80 C 153.59 81.02 152.09 83.84 150.41 86.46 C 147.78 92.79 149.20 100.34 144.90 106.08 C 140.00 106.28 135.09 106.03 130.20 105.87 C 127.58 104.99 125.11 103.67 122.64 102.44 C 119.79 99.12 116.79 95.80 112.58 94.25 C 115.21 93.35 118.16 93.16 120.44 91.44 C 123.27 89.65 125.34 86.94 127.64 84.56 C 131.09 76.61 127.69 68.02 125.88 60.11 C 124.04 54.33 122.39 47.41 125.98 41.96 C 128.14 37.79 133.65 37.07 135.74 32.87 C 132.69 33.40 129.61 33.77 126.59 34.44 C 123.59 36.18 120.24 37.32 117.53 39.53 C 115.70 40.97 113.19 42.33 112.91 44.89 C 111.64 49.21 112.31 53.79 111.13 58.14 C 110.36 62.20 109.24 67.34 104.67 68.66 C 99.30 71.36 93.40 69.33 87.81 68.87 C 90.62 65.98 93.39 62.33 93.03 58.06 C 92.89 52.95 93.48 47.74 92.25 42.72 C 91.08 34.63 93.22 25.89 98.72 19.73 C 103.47 14.35 104.58 6.93 104.01 0.00 Z" />
<path fill="#ffffff" d=" M 127.19 36.18 C 127.87 36.87 127.87 36.87 127.19 36.18 Z" />
<path fill="#ffffff" d=" M 176.27 132.28 C 179.97 127.60 182.67 122.19 186.00 117.24 L 186.00 305.00 L 69.81 305.00 C 73.26 303.46 77.05 304.26 80.68 303.86 C 80.98 303.56 81.57 302.97 81.87 302.68 C 82.53 293.10 81.07 283.40 82.91 273.91 C 83.74 268.40 84.16 262.87 84.25 257.29 C 85.09 258.24 87.02 258.68 86.90 260.20 C 86.73 266.87 89.52 273.18 89.10 279.87 C 90.53 284.89 92.04 289.96 92.86 295.16 C 93.27 297.07 92.41 299.57 94.30 300.86 C 102.04 300.63 110.24 304.17 117.44 299.80 C 115.82 293.69 111.00 289.28 108.32 283.68 C 105.23 278.57 104.78 272.39 101.71 267.30 C 100.42 264.75 101.18 261.76 100.97 259.02 C 104.10 258.92 107.35 259.40 110.37 258.40 C 115.51 256.69 120.96 255.33 125.19 251.75 C 125.08 250.32 125.03 248.89 124.78 247.48 C 122.39 244.57 119.55 242.07 116.81 239.50 C 118.32 238.70 122.06 238.79 120.90 236.25 C 118.17 234.12 114.46 233.43 112.23 230.63 C 115.17 231.56 119.26 235.02 121.84 231.72 C 123.12 225.78 120.13 219.92 121.80 214.09 C 120.78 211.09 119.10 208.23 119.02 204.98 C 118.75 200.40 116.99 196.08 116.47 191.54 C 115.65 185.03 112.68 179.10 110.84 172.86 C 111.48 170.20 112.22 166.89 115.38 166.28 C 122.30 165.01 129.62 166.65 135.44 170.58 C 141.38 174.04 148.51 172.79 155.06 173.03 C 159.75 173.30 163.97 170.23 166.70 166.65 C 168.38 163.49 168.33 159.76 169.38 156.38 C 170.61 152.13 170.31 146.98 173.70 143.70 C 175.94 141.17 180.01 141.41 181.77 138.30 C 177.61 137.86 173.43 137.99 169.26 138.00 C 165.73 140.83 164.94 145.32 163.22 149.20 C 159.77 154.80 152.62 154.14 146.95 154.04 C 143.01 154.33 138.96 152.24 137.60 148.43 C 136.57 145.91 133.77 145.89 131.48 145.53 C 134.22 142.92 136.20 138.93 140.18 138.10 C 145.16 137.79 150.21 137.77 155.09 138.88 C 162.40 138.08 170.44 137.19 176.27 132.28 Z" />
<path fill="#ffffff" d=" M -0.00 126.03 C 1.15 126.01 2.30 125.98 3.45 125.97 C 4.95 128.58 6.59 131.14 8.75 133.26 C 11.41 135.87 12.85 139.42 14.17 142.83 C 16.33 147.91 13.43 153.86 16.28 158.73 C 18.20 163.27 23.06 165.87 27.81 166.19 C 34.50 167.63 41.37 166.78 48.15 167.01 C 48.39 172.34 46.03 177.58 42.25 181.27 C 39.42 184.07 37.99 187.90 36.39 191.47 C 35.32 197.98 34.07 204.46 32.96 210.97 C 32.26 215.54 29.82 219.54 27.16 223.23 C 25.79 224.77 26.07 226.96 25.77 228.86 C 29.81 231.69 35.22 231.74 39.58 229.61 C 46.16 226.11 48.46 218.21 50.57 211.57 C 51.38 206.67 54.06 202.49 56.65 198.37 C 56.93 201.24 57.07 204.16 58.13 206.89 C 59.82 211.32 58.53 216.14 59.14 220.73 C 59.77 222.59 61.73 224.41 60.85 226.50 C 58.87 228.95 56.15 230.80 54.68 233.65 C 52.05 238.60 48.20 242.71 44.69 247.02 C 45.70 249.84 46.49 253.14 49.39 254.63 C 53.08 256.14 56.97 257.29 61.00 257.13 C 61.01 260.76 60.94 264.40 60.99 268.04 C 60.89 272.13 63.11 275.86 63.01 279.96 C 63.05 284.12 62.98 288.29 63.00 292.46 C 61.04 293.66 58.98 294.74 57.27 296.30 C 55.99 298.26 55.98 300.63 55.77 302.88 C 57.46 303.62 59.18 304.31 60.90 305.00 L 0.00 305.00 L 0.00 126.03 Z" />
<path fill="#fcebd6" d=" M 67.40 135.83 C 69.80 138.28 72.38 140.61 74.09 143.63 L 73.85 144.49 C 72.53 148.52 71.99 153.13 74.45 156.86 C 75.16 156.32 76.58 155.24 77.28 154.70 C 77.24 152.09 77.23 149.49 77.08 146.88 C 82.52 152.37 89.49 155.69 96.24 159.22 C 92.50 164.96 85.21 166.68 78.91 167.94 C 73.32 167.92 67.56 168.66 62.16 166.84 C 57.87 165.29 53.35 163.16 51.03 159.00 C 49.43 155.84 46.68 153.09 46.76 149.32 C 49.82 148.57 52.88 147.83 55.90 146.93 C 55.83 149.18 55.78 151.43 55.71 153.69 C 56.42 154.23 57.84 155.32 58.55 155.86 C 60.73 152.56 60.49 148.54 59.59 144.86 L 59.47 144.29 C 63.12 142.55 64.61 138.53 67.40 135.83 Z" />
<path fill="#ff0202" d=" M 55.94 145.04 C 56.85 145.00 58.68 144.90 59.59 144.86 C 60.49 148.54 60.73 152.56 58.55 155.86 C 57.84 155.32 56.42 154.23 55.71 153.69 C 55.78 151.43 55.83 149.18 55.90 146.93 C 55.91 146.46 55.93 145.51 55.94 145.04 Z" />
<path fill="#ff0202" d=" M 73.85 144.49 C 74.84 145.31 76.95 145.36 77.08 146.88 C 77.23 149.49 77.24 152.09 77.28 154.70 C 76.58 155.24 75.16 156.32 74.45 156.86 C 71.99 153.13 72.53 148.52 73.85 144.49 Z" />
<path fill="#010101" d=" M 71.56 162.86 C 73.13 161.51 74.53 159.99 76.00 158.55 C 76.79 159.31 77.56 160.08 78.34 160.85 C 77.10 162.70 76.20 165.04 74.06 166.05 C 71.05 167.99 67.36 166.79 64.26 165.72 C 63.15 164.53 62.45 163.03 61.55 161.69 C 62.65 160.93 64.11 159.11 65.53 160.30 C 67.41 161.29 69.24 163.69 71.56 162.86 Z" />
<path fill="#355885" d=" M 86.95 170.33 C 92.87 168.78 96.96 164.15 101.49 160.39 C 100.68 164.12 102.69 167.35 103.46 170.82 C 99.93 178.19 94.98 186.17 86.75 188.81 C 83.70 189.94 80.59 191.34 77.28 191.34 C 72.81 189.64 69.56 186.03 66.21 182.78 C 62.08 178.79 56.39 177.26 51.32 174.86 C 52.15 172.59 52.84 170.27 53.43 167.93 C 57.54 170.15 62.19 170.89 66.50 172.55 C 70.69 174.77 74.73 177.26 78.97 179.37 C 82.28 177.07 86.42 174.74 86.95 170.33 Z" />
<path fill="#fcebd6" d=" M 73.25 172.10 C 75.93 171.89 78.62 172.00 81.31 171.99 C 80.84 172.57 79.92 173.73 79.46 174.31 C 77.37 173.63 75.28 172.93 73.25 172.10 Z" />
<path fill="#355885" d=" M 105.45 175.70 C 106.51 180.17 108.08 184.53 110.49 188.45 C 114.10 196.40 114.40 205.33 116.90 213.61 C 113.18 215.14 109.64 217.08 106.27 219.26 C 102.16 210.39 104.85 200.49 103.86 191.14 C 103.81 189.74 102.66 188.49 101.20 189.00 C 99.84 190.28 100.06 192.25 99.95 193.96 C 99.84 203.29 100.69 212.72 98.81 221.94 C 91.15 221.52 83.63 223.41 75.98 223.06 C 71.61 223.09 67.33 222.20 63.00 221.79 C 62.92 215.64 63.63 209.32 61.75 203.35 C 60.35 198.66 61.00 193.40 58.80 188.98 C 56.27 188.05 56.68 191.46 55.89 192.94 C 55.35 195.96 52.11 197.17 50.74 199.71 C 47.58 205.05 46.79 211.35 44.16 216.93 C 41.80 215.68 39.36 214.60 36.89 213.58 C 38.12 206.57 39.20 199.51 40.61 192.54 C 43.14 187.70 45.35 182.00 50.07 178.92 C 56.98 181.24 63.60 184.94 68.15 190.77 C 63.50 196.12 62.32 204.11 66.03 210.30 C 70.68 210.59 74.46 207.84 76.89 204.10 C 80.45 206.32 84.62 207.68 88.84 206.99 C 90.39 207.03 91.16 205.30 91.02 203.96 C 91.26 200.12 90.84 196.28 90.13 192.52 C 96.82 188.67 102.36 182.80 105.45 175.70 Z" />
<path fill="#ff022c" d=" M 71.18 194.01 C 71.88 193.99 73.28 193.97 73.98 193.96 C 73.12 197.69 73.02 201.65 71.05 205.05 C 70.27 205.03 68.71 205.01 67.93 205.00 C 67.39 200.92 68.57 197.14 71.18 194.01 Z" />
<path fill="#ff022c" d=" M 77.85 195.83 C 80.53 195.21 83.23 194.71 85.87 193.93 C 86.59 197.01 87.09 200.14 87.12 203.31 C 85.18 202.83 83.22 202.38 81.36 201.67 C 79.19 200.52 78.87 197.82 77.85 195.83 Z" />
<path fill="#fcebd6" d=" M 35.61 217.85 C 38.25 218.70 40.80 219.79 42.60 222.00 C 39.37 225.59 34.65 227.79 29.78 227.02 C 31.63 223.91 33.81 221.00 35.61 217.85 Z" />
<path fill="#fcebd6" d=" M 108.72 223.66 C 110.87 221.28 113.42 219.26 116.64 218.61 C 117.29 222.10 118.27 225.54 118.07 229.13 C 115.11 227.04 111.70 225.73 108.72 223.66 Z" />
<path fill="#ffffff" d=" M 103.24 222.99 C 105.35 222.20 105.55 225.63 105.81 226.97 C 104.39 226.76 102.17 224.53 103.24 222.99 Z" />
<path fill="#355885" d=" M 66.11 226.22 C 74.06 227.49 82.23 227.38 90.18 226.17 C 92.01 226.02 94.46 225.45 95.53 227.45 C 99.77 233.35 106.45 236.56 112.02 240.97 C 115.56 243.48 118.59 246.60 121.59 249.71 C 114.85 252.72 107.59 255.91 100.03 254.89 C 88.81 253.02 77.41 254.62 66.12 253.81 C 60.21 253.00 53.79 252.86 48.89 248.99 C 54.43 241.25 59.90 233.44 66.11 226.22 Z" />
<path fill="#010101" d=" M 93.24 228.09 C 93.65 228.07 94.45 228.05 94.86 228.04 C 96.92 231.90 97.04 236.64 99.86 240.13 C 102.25 243.09 105.05 245.76 106.99 249.07 C 106.94 250.97 104.04 251.79 102.98 250.17 C 98.98 245.62 94.40 241.15 92.92 235.05 C 92.51 232.83 90.93 229.73 93.24 228.09 Z" />
<path fill="#ffffff" d=" M 108.10 228.10 C 109.46 227.93 110.06 228.53 109.90 229.90 C 108.53 230.07 107.93 229.47 108.10 228.10 Z" />
<path fill="#010101" d=" M 83.19 228.99 C 84.67 228.49 85.80 229.74 85.91 231.14 C 86.46 235.78 85.56 240.42 85.12 245.03 C 84.90 246.74 84.89 248.60 83.82 250.06 C 82.37 250.43 81.13 249.27 81.06 247.85 C 80.59 243.54 81.81 239.30 81.91 235.00 C 82.17 232.98 81.73 230.64 83.19 228.99 Z" />
<path fill="#010101" d=" M 72.04 229.67 C 73.39 230.09 74.74 230.52 76.08 230.96 C 73.99 237.04 72.78 243.59 68.94 248.91 C 67.89 250.17 67.10 252.23 65.14 252.01 C 62.68 249.96 65.29 247.39 66.23 245.27 C 69.16 240.47 70.25 234.92 72.04 229.67 Z" />
<path fill="#ffffff" d=" M 111.19 230.19 C 111.88 230.87 111.88 230.87 111.19 230.19 Z" />
<path fill="#ffffff" d=" M 111.10 235.10 C 112.46 234.93 113.06 235.53 112.90 236.90 C 111.54 237.07 110.93 236.47 111.10 235.10 Z" />
<path fill="#ffffff" d=" M 114.10 237.10 C 115.46 236.93 116.06 237.53 115.90 238.90 C 114.53 239.06 113.93 238.46 114.10 237.10 Z" />
<path fill="#fcebd6" d=" M 65.00 257.99 C 70.00 258.01 75.00 258.01 80.00 257.99 C 80.62 263.42 79.05 268.63 78.91 274.00 C 74.68 273.99 70.46 274.00 66.24 274.00 C 64.39 268.84 65.11 263.35 65.00 257.99 Z" />
<path fill="#fcebd6" d=" M 91.04 257.76 C 93.07 257.99 95.06 258.50 97.01 259.13 C 97.04 262.90 96.62 266.77 97.74 270.45 C 95.73 269.94 94.00 268.80 92.34 267.59 C 90.11 264.79 91.23 261.03 91.04 257.76 Z" />
<path fill="#242e61" d=" M 92.75 273.99 C 95.08 274.03 97.41 274.05 99.74 274.06 C 101.67 278.54 103.34 283.13 105.56 287.48 C 107.58 291.13 110.05 294.50 112.16 298.10 C 107.17 297.89 102.21 297.17 97.24 296.74 C 96.54 288.99 93.58 281.70 92.75 273.99 Z" />
<path fill="#242e61" d=" M 67.01 278.01 C 70.67 277.98 74.32 277.98 77.97 278.01 C 78.04 285.26 78.03 292.52 77.98 299.78 C 72.14 300.17 66.35 301.29 60.48 300.89 C 62.36 298.31 64.60 296.03 66.55 293.52 C 67.59 288.44 66.79 283.16 67.01 278.01 Z" />
</svg>
