<?xml version="1.0" encoding="UTF-8" ?>
<!DOCTYPE svg PUBLIC "-//W3C//DTD SVG 1.1//EN" "http://www.w3.org/Graphics/SVG/1.1/DTD/svg11.dtd">
<svg width="589pt" height="444pt" viewBox="0 0 589 444" version="1.1" xmlns="http://www.w3.org/2000/svg">
<path fill="#ffffff" d=" M 0.00 0.00 L 232.83 0.00 C 221.85 4.06 209.80 3.02 198.72 6.71 C 195.92 7.74 192.93 7.94 189.98 8.05 C 185.28 8.10 180.88 9.95 176.54 11.56 C 170.24 13.91 168.70 21.14 165.17 26.15 C 161.73 35.67 163.41 46.07 162.96 55.99 C 162.58 62.06 163.59 68.05 165.04 73.91 C 159.09 74.26 153.10 73.57 147.17 74.26 C 135.66 76.99 123.86 78.77 112.03 79.16 C 108.21 79.56 104.71 81.40 100.89 81.80 C 95.86 82.31 90.73 81.51 85.78 82.80 C 75.91 85.42 65.54 86.15 56.05 90.11 C 49.34 93.70 41.87 95.43 34.66 97.69 C 31.60 99.61 28.92 102.09 25.70 103.77 C 17.84 109.47 11.49 116.87 4.94 123.95 C 2.98 126.72 1.60 129.83 0.00 132.81 L 0.00 0.00 Z" />
<path fill="#040302" d=" M 232.83 0.00 L 267.13 0.00 C 274.71 2.61 282.80 2.70 290.71 3.38 C 301.23 4.86 311.90 3.17 322.43 4.53 C 325.62 4.93 328.84 4.89 332.04 5.05 C 337.43 5.23 342.01 8.50 347.12 9.84 C 355.37 12.13 362.39 18.17 366.21 25.80 C 367.70 28.93 369.90 31.79 370.74 35.18 C 371.85 44.20 372.71 53.37 371.45 62.43 C 370.87 66.61 371.13 70.84 370.98 75.05 C 370.90 79.14 368.69 82.75 367.78 86.68 C 375.99 90.61 385.28 88.53 394.02 88.94 C 404.02 88.37 413.02 93.42 422.60 95.39 C 430.57 97.01 437.99 100.58 446.00 102.06 C 450.80 103.08 455.41 104.91 460.28 105.68 C 464.81 106.36 469.37 106.71 473.93 107.16 C 483.65 108.49 492.47 113.01 501.54 116.47 C 507.58 119.30 514.20 122.46 517.57 128.55 C 520.80 133.35 525.06 137.62 526.60 143.38 C 527.55 147.29 530.24 150.32 532.28 153.67 C 537.39 166.64 540.68 180.39 547.20 192.79 C 552.13 203.68 556.66 214.82 563.00 225.01 C 566.21 230.26 565.77 236.82 568.86 242.11 C 571.72 247.21 573.50 252.80 575.91 258.11 C 578.36 263.47 577.62 269.62 579.95 275.02 C 584.64 286.32 582.40 298.87 585.30 310.54 C 586.40 317.32 587.88 324.03 589.00 330.81 L 589.00 339.31 C 588.26 343.10 587.24 346.88 585.22 350.21 C 582.33 354.89 581.95 360.94 577.82 364.86 C 575.73 367.08 572.27 366.22 569.88 367.89 C 566.99 369.78 564.05 371.66 560.75 372.77 C 553.06 375.46 545.22 377.78 537.20 379.22 C 534.41 379.68 531.86 380.94 529.62 382.64 C 526.65 384.88 522.82 385.16 519.46 386.51 C 513.94 388.63 508.05 389.47 502.50 391.50 C 497.07 393.47 491.47 394.85 485.91 396.39 C 486.51 400.29 486.95 404.44 489.12 407.85 C 494.53 412.25 502.43 413.44 506.42 419.62 C 509.63 423.21 509.42 428.34 508.85 432.81 C 508.40 435.88 505.65 437.72 503.26 439.29 C 500.18 441.24 496.88 443.33 493.07 443.04 C 484.37 442.96 475.61 443.49 467.00 442.01 C 458.51 440.53 449.31 441.79 441.48 437.56 C 438.32 435.21 435.51 432.40 432.41 429.98 C 425.56 433.27 417.77 432.60 410.43 433.48 C 403.93 434.36 397.32 433.60 390.87 434.85 C 386.42 435.22 383.23 438.81 379.04 439.95 C 373.47 441.47 367.86 442.82 362.21 444.00 L 346.86 444.00 C 337.70 442.47 328.35 441.00 319.80 437.22 C 315.60 435.83 315.60 430.47 312.09 428.26 C 306.47 431.84 299.99 433.39 293.55 434.68 C 286.84 437.06 279.71 437.53 272.73 438.69 C 257.86 440.25 242.78 437.03 229.26 430.86 C 225.11 429.11 220.23 428.40 217.13 424.84 C 214.74 422.58 214.05 419.19 213.94 416.03 C 213.83 411.50 213.50 406.72 215.51 402.51 C 218.79 395.83 220.30 388.42 224.09 381.98 C 219.81 380.80 215.35 381.02 210.95 380.96 C 206.56 380.95 202.39 379.30 198.02 379.11 C 193.96 378.87 189.82 379.27 185.87 378.14 C 179.95 376.57 174.10 374.56 167.96 374.07 C 164.93 373.83 161.92 373.32 158.98 372.53 C 158.89 382.35 159.16 392.18 158.97 402.01 C 158.48 409.27 156.36 417.71 149.40 421.38 C 144.01 423.52 138.78 426.54 132.91 427.05 C 129.27 427.39 126.08 425.37 122.76 424.28 C 115.22 421.42 106.08 425.14 99.38 419.66 C 91.81 414.72 90.07 405.20 89.01 396.90 C 88.14 391.91 92.95 389.03 95.93 385.95 C 99.22 383.21 101.98 379.97 104.79 376.78 C 107.49 373.79 111.13 371.84 113.76 368.79 C 115.84 366.12 117.33 363.06 118.97 360.11 C 116.35 359.17 113.39 358.73 111.31 356.74 C 108.65 354.37 106.16 351.75 103.09 349.91 C 97.74 346.73 91.55 345.58 85.90 343.11 C 80.69 340.84 75.05 339.65 69.98 337.04 C 66.69 334.72 63.87 331.75 61.37 328.60 C 57.49 322.56 56.50 315.23 53.00 309.00 C 49.72 303.24 48.23 296.70 45.10 290.88 C 40.54 282.69 36.06 274.44 32.08 265.96 C 28.13 254.40 24.80 242.63 21.01 231.01 C 19.81 227.19 19.53 223.17 18.65 219.28 C 17.56 214.60 14.29 210.88 12.54 206.48 C 10.74 200.37 11.41 193.79 9.19 187.78 C 6.95 182.04 4.36 176.44 2.20 170.68 C 1.15 168.05 3.72 166.17 5.12 164.31 C 3.40 160.97 1.74 157.60 0.00 154.28 L 0.00 132.81 C 1.60 129.83 2.98 126.72 4.94 123.95 C 11.49 116.87 17.84 109.47 25.70 103.77 C 28.92 102.09 31.60 99.61 34.66 97.69 C 41.87 95.43 49.34 93.70 56.05 90.11 C 65.54 86.15 75.91 85.42 85.78 82.80 C 90.73 81.51 95.86 82.31 100.89 81.80 C 104.71 81.40 108.21 79.56 112.03 79.16 C 123.86 78.77 135.66 76.99 147.17 74.26 C 153.10 73.57 159.09 74.26 165.04 73.91 C 163.59 68.05 162.58 62.06 162.96 55.99 C 163.41 46.07 161.73 35.67 165.17 26.15 C 168.70 21.14 170.24 13.91 176.54 11.56 C 180.88 9.95 185.28 8.10 189.98 8.05 C 192.93 7.94 195.92 7.74 198.72 6.71 C 209.80 3.02 221.85 4.06 232.83 0.00 Z" />
<path fill="#ffffff" d=" M 267.13 0.00 L 589.00 0.00 L 589.00 330.81 C 587.88 324.03 586.40 317.32 585.30 310.54 C 582.40 298.87 584.64 286.32 579.95 275.02 C 577.62 269.62 578.36 263.47 575.91 258.11 C 573.50 252.80 571.72 247.21 568.86 242.11 C 565.77 236.82 566.21 230.26 563.00 225.01 C 556.66 214.82 552.13 203.68 547.20 192.79 C 540.68 180.39 537.39 166.64 532.28 153.67 C 530.24 150.32 527.55 147.29 526.60 143.38 C 525.06 137.62 520.80 133.35 517.57 128.55 C 514.20 122.46 507.58 119.30 501.54 116.47 C 492.47 113.01 483.65 108.49 473.93 107.16 C 469.37 106.71 464.81 106.36 460.28 105.68 C 455.41 104.91 450.80 103.08 446.00 102.06 C 437.99 100.58 430.57 97.01 422.60 95.39 C 413.02 93.42 404.02 88.37 394.02 88.94 C 385.28 88.53 375.99 90.61 367.78 86.68 C 368.69 82.75 370.90 79.14 370.98 75.05 C 371.13 70.84 370.87 66.61 371.45 62.43 C 372.71 53.37 371.85 44.20 370.74 35.18 C 369.90 31.79 367.70 28.93 366.21 25.80 C 362.39 18.17 355.37 12.13 347.12 9.84 C 342.01 8.50 337.43 5.23 332.04 5.05 C 328.84 4.89 325.62 4.93 322.43 4.53 C 311.90 3.17 301.23 4.86 290.71 3.38 C 282.80 2.70 274.71 2.61 267.13 0.00 Z" />
<path fill="#b58c6b" d=" M 231.79 7.80 C 237.42 6.41 243.27 7.14 249.00 7.02 C 255.67 7.17 262.45 6.34 269.00 7.97 C 276.08 9.69 283.37 9.79 290.58 10.49 C 300.81 11.87 311.18 10.13 321.41 11.56 C 326.70 12.41 332.36 11.15 337.32 13.64 C 343.62 16.61 351.29 17.42 356.17 22.84 C 359.12 27.07 361.48 31.74 363.36 36.54 C 365.19 44.95 365.59 53.73 364.33 62.26 C 363.76 66.46 364.23 70.71 363.81 74.91 C 363.24 78.72 361.63 82.25 360.48 85.90 C 354.68 85.65 348.93 84.75 343.11 84.86 C 342.85 79.24 343.06 73.62 342.97 68.00 C 342.79 59.80 345.26 51.56 343.59 43.39 C 342.13 40.11 339.74 37.30 337.29 34.71 C 335.75 32.87 333.18 33.18 331.05 32.80 C 324.25 32.24 318.38 28.15 311.62 27.40 C 303.44 26.54 295.24 25.60 287.00 25.98 C 273.34 26.33 259.61 25.15 246.02 26.89 C 238.35 27.31 230.66 26.68 223.00 27.03 C 216.31 27.51 210.83 31.83 205.47 35.43 C 200.95 38.42 196.16 41.96 194.22 47.22 C 193.47 56.45 194.41 65.74 193.87 74.98 C 186.76 73.66 179.54 74.17 172.37 73.82 C 170.88 68.68 169.75 63.39 169.96 58.00 C 170.27 48.77 169.20 39.37 171.40 30.30 C 172.52 27.05 174.41 24.11 176.28 21.24 C 178.24 18.22 181.92 17.23 185.09 16.03 C 189.11 14.38 193.54 15.53 197.68 14.60 C 208.52 10.09 220.64 11.13 231.79 7.80 Z" />
<path fill="#ffffff" d=" M 223.99 34.03 C 234.32 33.72 244.72 34.71 254.98 33.06 C 269.30 32.99 283.64 32.88 297.97 33.12 C 304.95 34.31 312.47 33.66 318.91 37.03 C 323.31 38.64 327.98 39.40 332.53 40.49 C 334.27 41.33 335.62 42.83 336.71 44.40 C 337.60 49.92 336.85 55.54 336.12 61.03 C 335.71 68.66 336.23 76.30 335.93 83.93 C 326.37 83.83 316.68 84.84 307.28 82.69 C 301.83 81.45 296.17 82.54 290.73 81.30 C 284.87 80.06 278.88 79.93 272.97 79.12 C 263.99 78.70 254.95 79.57 246.03 78.08 C 238.46 78.69 231.29 76.06 223.88 75.15 C 216.29 74.68 208.67 75.25 201.07 74.93 C 200.90 67.27 201.04 59.61 200.97 51.95 C 200.72 48.11 203.21 44.04 207.00 42.98 C 210.32 41.98 212.19 38.78 215.12 37.13 C 217.86 35.60 220.79 34.11 223.99 34.03 Z" />
<path fill="#543f2f" d=" M 136.67 83.37 C 142.18 82.80 147.39 80.39 152.99 80.57 C 161.99 80.68 171.00 80.69 180.00 80.60 C 185.35 80.51 190.62 81.59 195.97 81.68 C 204.32 81.79 212.68 81.43 221.03 81.72 C 227.13 81.88 232.90 84.26 238.98 84.55 C 242.49 84.73 246.01 84.83 249.51 85.23 C 258.14 86.32 266.87 84.96 275.51 86.17 C 283.39 86.61 291.10 88.73 299.02 88.69 C 306.07 88.78 312.90 91.15 320.00 90.71 C 334.05 90.09 348.01 92.09 362.03 92.66 C 366.90 92.56 371.14 95.54 375.97 95.66 C 382.99 95.91 390.02 95.35 397.04 95.69 C 402.61 95.99 407.85 98.10 413.13 99.73 C 419.79 101.92 426.77 102.99 433.35 105.46 C 439.93 108.01 446.99 108.89 453.69 111.08 C 461.06 113.40 468.91 112.92 476.43 114.45 C 484.96 116.66 493.04 120.28 501.18 123.61 C 506.85 125.87 512.13 130.12 514.06 136.10 C 516.13 142.39 519.82 148.23 520.33 154.95 C 520.97 162.79 519.81 170.74 517.24 178.15 C 515.40 183.49 510.79 187.05 507.23 191.19 C 504.01 194.98 500.65 198.70 496.59 201.62 C 491.93 204.98 487.25 208.89 481.36 209.72 C 474.34 211.42 467.13 211.45 459.97 211.40 C 443.39 213.35 426.67 211.77 410.04 212.48 C 399.47 214.48 388.81 216.60 378.00 216.40 C 364.32 216.23 350.64 216.49 336.97 216.30 C 327.16 216.19 317.84 212.37 308.04 212.34 C 290.35 212.27 272.65 212.48 254.96 212.28 C 244.35 210.87 233.65 211.41 222.99 211.40 C 218.18 211.51 213.55 210.17 208.83 209.55 C 199.30 208.71 189.68 210.10 180.18 208.96 C 166.42 206.56 152.96 202.39 138.98 201.40 C 127.04 200.38 115.04 199.49 103.37 196.74 C 102.16 195.69 101.23 194.39 100.25 193.14 C 100.41 194.21 100.57 195.27 100.74 196.34 C 97.49 196.26 94.26 195.79 91.07 195.18 C 85.09 194.04 78.95 194.41 72.95 193.39 C 66.94 192.48 61.33 189.91 55.33 188.97 C 50.10 188.07 44.49 188.10 39.81 185.28 C 35.65 182.74 31.65 179.92 27.16 177.96 C 21.15 175.23 16.52 170.20 13.27 164.56 C 10.66 159.95 6.59 155.68 6.66 150.05 C 6.55 145.36 6.40 140.66 6.76 135.98 C 7.18 131.57 10.13 128.00 13.41 125.28 C 17.03 122.22 19.06 117.72 22.78 114.77 C 25.19 112.81 27.86 111.19 30.24 109.18 C 32.67 107.23 34.84 104.77 37.89 103.80 C 44.56 101.59 51.40 99.80 57.76 96.76 C 66.90 92.55 77.10 92.18 86.68 89.49 C 91.04 88.35 95.56 88.73 100.01 88.63 C 105.52 88.61 110.43 85.32 115.99 85.64 C 122.97 85.84 129.76 84.01 136.67 83.37 Z" />
<path fill="#ffffff" d=" M 0.00 154.28 C 1.74 157.60 3.40 160.97 5.12 164.31 C 3.72 166.17 1.15 168.05 2.20 170.68 C 4.36 176.44 6.95 182.04 9.19 187.78 C 11.41 193.79 10.74 200.37 12.54 206.48 C 14.29 210.88 17.56 214.60 18.65 219.28 C 19.53 223.17 19.81 227.19 21.01 231.01 C 24.80 242.63 28.13 254.40 32.08 265.96 C 36.06 274.44 40.54 282.69 45.10 290.88 C 48.23 296.70 49.72 303.24 53.00 309.00 C 56.50 315.23 57.49 322.56 61.37 328.60 C 63.87 331.75 66.69 334.72 69.98 337.04 C 75.05 339.65 80.69 340.84 85.90 343.11 C 91.55 345.58 97.74 346.73 103.09 349.91 C 106.16 351.75 108.65 354.37 111.31 356.74 C 113.39 358.73 116.35 359.17 118.97 360.11 C 117.33 363.06 115.84 366.12 113.76 368.79 C 111.13 371.84 107.49 373.79 104.79 376.78 C 101.98 379.97 99.22 383.21 95.93 385.95 C 92.95 389.03 88.14 391.91 89.01 396.90 C 90.07 405.20 91.81 414.72 99.38 419.66 C 106.08 425.14 115.22 421.42 122.76 424.28 C 126.08 425.37 129.27 427.39 132.91 427.05 C 138.78 426.54 144.01 423.52 149.40 421.38 C 156.36 417.71 158.48 409.27 158.97 402.01 C 159.16 392.18 158.89 382.35 158.98 372.53 C 161.92 373.32 164.93 373.83 167.96 374.07 C 174.10 374.56 179.95 376.57 185.87 378.14 C 189.82 379.27 193.96 378.87 198.02 379.11 C 202.39 379.30 206.56 380.95 210.95 380.96 C 215.35 381.02 219.81 380.80 224.09 381.98 C 220.30 388.42 218.79 395.83 215.51 402.51 C 213.50 406.72 213.83 411.50 213.94 416.03 C 214.05 419.19 214.74 422.58 217.13 424.84 C 220.23 428.40 225.11 429.11 229.26 430.86 C 242.78 437.03 257.86 440.25 272.73 438.69 C 279.71 437.53 286.84 437.06 293.55 434.68 C 299.99 433.39 306.47 431.84 312.09 428.26 C 315.60 430.47 315.60 435.83 319.80 437.22 C 328.35 441.00 337.70 442.47 346.86 444.00 L 0.00 444.00 L 0.00 154.28 Z" />
<path fill="#b58c6b" d=" M 527.36 161.71 C 531.32 170.70 533.77 180.30 537.75 189.29 C 541.44 196.40 544.22 203.94 548.02 210.99 C 549.87 214.36 551.21 217.96 552.55 221.55 C 553.87 224.96 557.14 227.24 558.12 230.82 C 559.34 235.22 559.65 239.95 562.03 243.96 C 564.99 248.99 566.72 254.58 569.09 259.88 C 571.51 264.98 570.53 270.90 572.91 276.03 C 576.39 283.90 575.93 292.61 576.80 300.99 C 576.82 307.02 578.84 312.76 579.51 318.72 C 581.46 328.34 584.16 339.50 578.37 348.35 C 575.99 351.98 575.46 356.48 573.07 360.10 C 571.81 362.33 568.83 361.02 566.84 361.88 C 562.88 363.46 559.33 365.97 555.24 367.25 C 548.98 369.28 542.65 371.23 536.11 372.10 C 533.79 372.54 531.20 372.71 529.37 374.38 C 527.64 375.64 526.14 377.47 523.91 377.79 C 518.56 378.74 513.69 381.30 508.40 382.42 C 499.95 384.37 492.06 388.75 483.27 389.04 C 478.35 382.10 477.42 373.46 475.69 365.37 C 474.47 358.85 469.98 353.74 467.06 347.96 C 464.88 343.62 461.04 340.32 456.82 338.06 C 453.81 337.84 452.90 341.55 451.37 343.48 C 446.87 349.37 443.46 356.03 440.98 363.01 C 439.67 366.86 436.70 369.96 435.99 374.04 C 434.32 380.04 434.69 386.84 430.78 392.01 C 421.09 391.84 411.71 388.65 402.00 388.94 C 393.00 389.04 383.99 388.95 374.99 389.03 C 369.63 389.12 364.36 387.85 359.01 387.94 C 342.34 388.06 325.66 387.92 308.99 388.03 C 301.10 388.10 293.35 386.30 285.73 384.43 C 277.93 383.51 270.06 383.17 262.23 382.67 C 256.49 381.39 250.75 380.15 245.01 378.91 C 234.11 375.12 222.46 373.97 210.97 373.93 C 206.91 373.80 203.08 372.16 199.03 372.04 C 195.23 371.86 191.36 372.29 187.63 371.33 C 181.13 369.70 174.76 367.23 167.99 367.00 C 164.59 366.97 161.30 366.08 158.24 364.65 C 158.05 353.94 156.30 343.37 154.84 332.79 C 154.31 328.20 152.20 324.00 149.90 320.06 C 145.58 322.53 142.13 326.16 138.71 329.71 C 135.45 333.02 134.07 337.61 131.20 341.20 C 128.03 345.06 126.32 349.81 123.76 354.05 C 120.15 353.14 115.96 352.61 113.48 349.53 C 106.47 341.22 94.98 339.89 85.65 335.43 C 79.57 333.33 72.79 331.75 68.38 326.70 C 64.61 320.93 63.28 314.02 60.02 307.99 C 55.97 300.68 54.17 292.36 49.89 285.15 C 45.29 275.69 38.82 267.00 36.39 256.62 C 33.36 247.55 30.82 238.33 27.79 229.27 C 26.44 224.69 26.53 219.76 24.66 215.32 C 23.24 211.83 21.61 208.43 19.98 205.04 C 17.03 198.80 18.80 191.42 15.74 185.21 C 13.70 181.21 12.09 177.00 10.86 172.68 C 13.45 174.90 15.78 177.41 18.25 179.76 C 21.65 183.04 26.32 184.34 30.27 186.78 C 34.00 189.07 37.55 191.76 41.69 193.31 C 45.75 194.90 50.18 194.89 54.42 195.66 C 59.21 196.49 63.79 198.17 68.48 199.41 C 73.24 200.50 78.14 200.82 83.02 201.04 C 89.78 201.34 96.34 203.21 103.06 203.90 C 111.74 204.73 120.21 207.26 128.98 207.12 C 132.25 207.40 137.40 207.54 137.71 211.83 C 134.25 216.86 134.65 223.18 132.74 228.79 C 131.92 231.13 132.03 233.64 133.13 235.87 C 134.69 239.40 135.75 243.14 137.42 246.63 C 139.05 248.70 141.59 249.76 143.59 251.44 C 145.88 253.09 147.79 255.40 150.48 256.41 C 158.70 257.75 166.37 261.32 173.61 265.30 C 177.78 266.83 182.02 268.23 186.25 269.59 C 194.78 271.07 203.60 270.71 212.00 273.04 C 217.75 274.73 223.76 275.04 229.59 276.38 C 234.57 277.47 239.71 276.70 244.74 277.36 C 253.44 278.61 262.25 277.80 271.00 278.01 C 278.64 277.88 286.40 278.62 293.93 276.94 C 297.15 276.28 299.73 274.11 302.60 272.65 C 306.08 270.72 310.28 270.08 313.24 267.25 C 316.13 264.48 319.23 261.82 321.53 258.51 C 323.47 253.73 322.61 248.31 324.54 243.50 C 327.28 236.61 325.42 229.13 326.13 221.96 C 330.42 222.35 334.67 223.11 338.99 223.06 C 354.34 222.93 369.69 223.09 385.03 222.99 C 391.84 222.43 398.66 221.66 405.35 220.24 C 412.72 218.10 420.45 219.28 428.00 219.02 C 438.04 218.74 448.15 219.70 458.13 218.26 C 464.49 217.55 470.96 218.67 477.27 217.29 C 481.82 216.29 486.74 216.32 490.86 213.88 C 501.48 207.95 510.11 199.09 517.73 189.74 C 524.93 182.32 526.27 171.51 527.36 161.71 Z" />
<path fill="#b58c6b" d=" M 144.22 208.89 C 149.19 209.06 153.99 210.37 158.82 211.39 C 159.30 217.02 158.23 223.02 160.72 228.30 C 162.90 231.66 165.66 234.65 168.50 237.47 C 174.00 242.18 179.66 247.20 186.71 249.39 C 190.62 250.65 194.20 252.82 198.23 253.72 C 204.48 255.17 210.89 255.93 216.99 257.97 C 223.07 259.96 229.52 258.40 235.74 259.36 C 241.31 260.26 246.99 259.76 252.58 260.46 C 259.37 261.37 266.23 261.01 273.06 261.04 C 276.03 261.19 278.35 259.13 280.95 258.07 C 283.90 256.67 287.36 256.13 289.80 253.80 C 295.05 249.26 299.37 243.07 299.97 236.00 C 300.28 230.38 299.73 224.74 300.11 219.12 C 305.58 218.89 311.31 218.42 316.52 220.44 C 319.62 223.84 318.98 228.79 319.11 233.02 C 319.51 239.24 315.97 244.78 315.91 250.96 C 316.09 255.51 312.42 258.59 309.62 261.65 C 308.18 263.19 306.00 263.51 304.12 264.20 C 300.27 265.25 297.35 268.21 293.69 269.64 C 286.31 271.71 278.56 270.83 271.00 270.99 C 262.58 270.80 254.11 271.55 245.74 270.33 C 239.90 269.69 233.93 270.47 228.20 268.87 C 222.01 267.88 215.81 266.90 209.75 265.26 C 202.62 263.78 195.28 263.82 188.09 262.75 C 178.53 260.54 170.39 254.74 161.06 251.89 C 157.27 250.17 152.77 250.20 149.38 247.62 C 146.28 245.35 143.52 242.51 141.96 238.95 C 140.65 236.12 138.72 233.04 139.80 229.81 C 141.16 224.87 141.52 219.59 144.02 215.02 C 145.06 213.13 144.25 210.91 144.22 208.89 Z" />
<path fill="#b58c6b" d=" M 166.02 213.14 C 172.06 213.79 177.85 216.08 183.97 216.05 C 190.99 216.11 198.01 215.88 205.03 216.01 C 210.09 216.08 214.91 217.95 219.96 218.02 C 227.98 218.17 236.01 217.82 244.04 218.05 C 260.24 220.01 276.60 218.47 292.88 219.12 C 292.73 227.82 294.83 237.68 289.19 245.19 C 286.32 249.55 280.79 250.24 276.47 252.49 C 272.96 254.46 268.86 254.03 265.00 254.07 C 261.19 254.07 257.37 253.95 253.59 253.43 C 248.27 252.74 242.89 253.23 237.58 252.43 C 233.07 251.77 228.51 252.07 223.97 251.98 C 220.07 251.94 216.45 250.32 212.71 249.45 C 205.74 247.90 198.54 246.99 191.98 244.05 C 187.23 241.99 182.21 240.21 178.29 236.70 C 174.62 233.37 170.70 230.22 167.86 226.13 C 165.34 222.30 165.94 217.49 166.02 213.14 Z" />
<path fill="#040302" d=" M 339.40 302.33 C 342.26 301.83 345.13 302.78 347.99 302.86 C 353.76 303.25 360.20 302.29 365.26 305.75 C 367.87 308.74 369.04 312.70 370.70 316.26 C 373.06 321.59 371.71 327.47 371.11 333.02 C 370.64 336.38 370.30 340.19 367.68 342.67 C 364.74 345.37 361.31 348.30 357.04 348.06 C 350.31 348.01 342.93 348.80 336.95 345.07 C 332.70 342.48 328.25 339.80 325.40 335.60 C 321.97 330.24 322.03 322.84 325.53 317.54 C 327.28 315.24 329.46 313.22 330.50 310.45 C 331.95 306.49 335.47 303.63 339.40 302.33 Z" />
<path fill="#040302" d=" M 206.45 303.35 C 208.13 302.72 209.97 303.14 211.71 303.27 C 216.71 304.06 221.86 303.67 226.75 305.15 C 230.94 306.33 235.45 305.83 239.56 307.36 C 242.35 310.03 244.37 313.61 245.76 317.21 C 246.53 323.37 246.52 329.91 243.77 335.63 C 242.15 340.44 238.99 345.41 233.84 346.87 C 226.40 347.87 219.11 345.47 211.85 344.23 C 206.50 343.43 201.63 340.79 197.30 337.65 C 194.90 335.92 195.01 332.68 194.93 330.04 C 194.95 325.71 194.80 321.37 195.07 317.04 C 195.07 314.42 197.21 312.62 198.72 310.73 C 201.10 308.10 203.06 304.81 206.45 303.35 Z" />
<path fill="#ffffff" d=" M 340.26 309.11 C 346.97 310.81 354.09 308.86 360.63 311.25 C 362.14 314.83 364.38 318.20 364.97 322.10 C 365.15 326.07 364.12 329.97 363.89 333.93 C 363.83 337.32 360.58 339.64 357.78 340.83 C 351.22 341.27 343.91 341.73 338.23 337.80 C 335.88 336.17 332.95 335.11 331.35 332.62 C 329.99 329.54 329.27 325.82 330.60 322.62 C 331.88 319.38 336.56 318.68 336.91 314.93 C 337.11 312.52 338.48 310.63 340.26 309.11 Z" />
<path fill="#ffffff" d=" M 204.36 315.37 C 206.67 312.42 210.18 309.27 214.22 310.62 C 221.25 310.37 227.73 313.51 234.75 313.16 C 240.43 318.00 240.25 326.77 237.01 332.93 C 235.83 335.18 235.99 338.31 233.66 339.82 C 226.31 340.80 219.16 338.12 211.97 337.04 C 208.28 336.67 205.15 334.61 202.19 332.57 C 202.09 326.84 200.71 320.35 204.36 315.37 Z" />
<path fill="#fbb866" d=" M 136.83 344.81 C 140.42 340.35 141.88 334.34 146.71 330.89 C 149.93 342.49 150.49 354.64 151.45 366.58 C 152.49 374.01 151.83 381.52 151.99 388.99 C 151.86 395.54 152.71 402.28 150.67 408.63 C 149.92 411.18 148.77 414.02 146.13 415.11 C 141.39 417.35 136.48 420.12 131.09 419.96 C 126.40 418.70 122.08 415.76 117.03 416.02 C 111.27 416.13 104.47 416.48 100.38 411.61 C 97.73 407.49 97.11 402.45 96.21 397.74 C 95.51 395.58 97.42 394.07 98.72 392.69 C 101.95 389.59 105.21 386.50 108.00 382.99 C 110.83 379.40 115.27 377.67 118.32 374.32 C 120.42 372.20 121.35 369.31 122.86 366.81 C 124.97 363.06 128.60 360.42 130.47 356.51 C 132.37 352.50 134.14 348.38 136.83 344.81 Z" />
<path fill="#ffffff" d=" M 585.22 350.21 C 587.24 346.88 588.26 343.10 589.00 339.31 L 589.00 444.00 L 362.21 444.00 C 367.86 442.82 373.47 441.47 379.04 439.95 C 383.23 438.81 386.42 435.22 390.87 434.85 C 397.32 433.60 403.93 434.36 410.43 433.48 C 417.77 432.60 425.56 433.27 432.41 429.98 C 435.51 432.40 438.32 435.21 441.48 437.56 C 449.31 441.79 458.51 440.53 467.00 442.01 C 475.61 443.49 484.37 442.96 493.07 443.04 C 496.88 443.33 500.18 441.24 503.26 439.29 C 505.65 437.72 508.40 435.88 508.85 432.81 C 509.42 428.34 509.63 423.21 506.42 419.62 C 502.43 413.44 494.53 412.25 489.12 407.85 C 486.95 404.44 486.51 400.29 485.91 396.39 C 491.47 394.85 497.07 393.47 502.50 391.50 C 508.05 389.47 513.94 388.63 519.46 386.51 C 522.82 385.16 526.65 384.88 529.62 382.64 C 531.86 380.94 534.41 379.68 537.20 379.22 C 545.22 377.78 553.06 375.46 560.75 372.77 C 564.05 371.66 566.99 369.78 569.88 367.89 C 572.27 366.22 575.73 367.08 577.82 364.86 C 581.95 360.94 582.33 354.89 585.22 350.21 Z" />
<path fill="#fbb866" d=" M 457.48 348.56 C 459.33 347.56 460.12 349.92 460.90 351.12 C 463.24 356.04 467.29 360.13 468.47 365.56 C 469.98 371.70 470.49 378.13 473.09 383.97 C 476.51 391.36 479.19 399.10 480.98 407.05 C 481.64 410.75 484.41 413.64 487.67 415.32 C 492.60 417.88 497.94 420.16 501.73 424.39 C 502.36 426.79 501.99 429.30 501.94 431.76 C 499.16 434.08 495.78 436.06 492.05 436.00 C 484.02 436.00 475.94 436.42 468.00 434.99 C 460.20 433.55 451.93 434.72 444.51 431.45 C 441.72 429.70 439.27 427.29 437.50 424.52 C 436.07 418.00 435.45 411.21 436.53 404.58 C 437.23 400.27 436.38 395.59 438.68 391.66 C 442.43 385.00 441.16 376.72 445.17 370.17 C 448.17 364.84 450.42 359.15 452.43 353.39 C 453.12 351.01 454.94 348.96 457.48 348.56 Z" />
<path fill="#040302" d=" M 283.43 358.56 C 287.89 357.55 292.48 358.04 297.00 357.98 C 302.25 358.04 307.69 357.38 312.73 359.27 C 316.36 360.61 320.25 361.38 323.64 363.31 C 327.10 365.02 327.13 370.98 323.65 372.69 C 320.20 374.89 315.98 375.13 312.01 375.07 C 299.00 374.91 285.98 375.09 272.97 375.01 C 269.65 375.35 266.58 372.29 266.86 368.98 C 266.35 364.66 270.29 361.56 273.64 359.67 C 276.90 359.24 280.24 359.52 283.43 358.56 Z" />
<path fill="#ffffff" d=" M 275.16 366.65 C 278.61 367.20 281.95 366.21 285.23 365.31 C 290.12 364.59 295.08 365.16 300.00 364.98 C 304.55 365.01 309.86 364.35 313.45 367.81 C 300.20 368.16 286.92 368.06 273.67 367.86 C 274.04 367.56 274.79 366.95 275.16 366.65 Z" />
<path fill="#fbb866" d=" M 228.81 382.30 C 236.10 382.75 242.70 386.16 249.88 387.19 C 254.30 387.86 258.53 389.53 263.01 389.90 C 270.53 390.10 278.06 390.68 285.51 391.58 C 295.74 394.69 306.43 395.35 317.06 395.09 C 314.87 403.81 314.10 412.80 313.79 421.76 C 311.01 423.68 307.45 423.01 304.49 424.45 C 299.73 426.58 294.42 426.72 289.57 428.56 C 284.94 430.27 279.93 430.17 275.14 431.15 C 266.65 432.94 257.93 431.74 249.47 430.41 C 243.60 428.46 237.27 427.53 232.04 424.03 C 228.59 422.17 222.80 423.15 221.34 418.64 C 220.80 414.70 220.37 410.44 221.64 406.61 C 224.37 401.84 225.29 396.35 227.36 391.31 C 228.68 388.47 228.43 385.32 228.81 382.30 Z" />
<path fill="#fbb866" d=" M 324.16 395.09 C 336.45 394.89 348.74 395.01 361.03 395.04 C 376.57 397.05 392.28 395.35 407.88 396.20 C 415.24 397.43 422.63 398.34 430.03 399.29 C 429.69 403.53 428.79 407.73 428.91 412.01 C 428.90 416.30 429.91 420.50 430.06 424.78 C 419.02 425.42 408.05 427.02 396.98 427.10 C 392.82 427.50 388.60 427.69 384.49 428.47 C 382.26 429.85 380.68 432.30 378.05 432.97 C 370.49 434.88 362.89 437.16 355.01 437.06 C 346.46 436.92 337.96 435.65 329.74 433.31 C 326.53 432.45 321.60 432.00 321.18 427.83 C 320.62 421.85 320.93 415.80 321.73 409.86 C 322.27 404.90 322.55 399.85 324.16 395.09 Z" />
</svg>
